<svg id="Ñëîé_2" data-name="Ñëîé 2" xmlns="http://www.w3.org/2000/svg" viewBox="0 0 985.04 498.89"><defs><style>.cls-1{fill:#7890cb;}.cls-2{font-size:207.38px;fill:#fff;font-family:MyriadHebrew-Regular, Myriad Hebrew;}</style></defs><path class="cls-1" d="M658.44,248.09c-1.59-2.14-3.5-4.59-5.85-7.38-15.5-18.37-29.67-20.19-28-25.36.53-1.6,4-3.7,8.49-5.84.21-.09.42-.18.63-.29l.11-.06.34-.16c7.07-3,39.48-3.5,74.84-3.5H816.71c18.09,0,14.64-4.6,9.47-7.18s-27.84-8.62-68.32-16.65c0,0,37.07,2.2,55.16,5.07s34.7,5,52.78,10.43,34.45,4.88,64.6,4.88,149.18,3.27,149.18,3.27-6.74-5.9-20.57-12.17c-16.25-7.37-74.35-16.36-117.42-18.09s-147-1.43-188.61,0c-30.92,1.07-73.87,4.19-110.87,7.38C615.47,184.6,582.74,188,569,189.5h0c-2.6.28-7.44-.39-9.82-3.46-7.17-9.3-24.59-31.67-34-41.7A200,200,0,0,0,502.23,124c3.38-.31,6.68-.59,9.87-.85,31.59-2.58,174.85-4.88,190.35-4.59s61.15,14.64,61.15,14.64-37.89-18.85-60.86-19.62-163.84-3.83-222,0c-54.19,3.56-126.8,41.95-188.47,78.74h0c-17.4,9.36-26.89,12.62-26.89,12.62,2.18,2.35,8.29,3.75,10.88,4.25a301.21,301.21,0,0,0-30.7,40.1c-4.71,7.32,26.91,5.54,26.91,5.54C253.9,256.84,235.74,261,227,267.05a24,24,0,0,0-4.25,3.81c-6.75,7.84-8.63,16.1-8.66,20.33-.05,7.42-.53,18.33-.53,18.33s1.64-16.2,5.85-22.71,13.29-13.27,33.58-17.48,201.13-40.26,223.55-44.79c22.22-4.49-92.26,10.33-134.36,15.69S271,251,268.27,244.44s-1.92-15.31,6.12-26.79c4.61-6.58,9.79-13.59,13.38-18.38,3.31-4.42,69.16-36.12,98.71-49.47,9-3.91,16.66-7,22-8.9,12.63-4.41,27.2-7.78,42.18-10.4,25-3.67,44.43,11,52.84,22.84s29.67,42.3,37.9,46.7c5.85,3.13,14.71,3.11,22.37,2.47l0,.11,7.2-.89,1.13-.14c10-1.24,26.42-3.27,34-4.13,11.34-1.3,7.85,3.25,3.59,5-6,2.51-12.56,5.39-19,8.47-18.93,9.11-30.36,27.22-38.49,50.13,15.75-19.5,36.55-31.37,59.36-31.37C628.8,229.71,644.84,236.44,658.44,248.09Z" transform="translate(-176.69 -111.65)"/><path class="cls-1" d="M481.1,290.62c11.91.83,18.95,34,18.95,34s-.58-20.1,1.72-37.32,11.1-26.24,11.1-26.24-49,7.86-189.1,29.3Z" transform="translate(-176.69 -111.65)"/><path class="cls-1" d="M833.36,248.11l-2.2-2.14s-62.94-1.19-79.43-2.1c-20.12-1.11-20.12-1.11-33.49-7.46-11.14-5.3-10.72-11.87-4.6-12.06s81.35-1.53,87.28-1.53,11.29,3.06,20.29,5.16c0,0-6.13-6.7-9-8.61s-5.74-2.49-21.24-2.3-94,0-105.27,0-10.53,5.17-7.08,10.14,11.86,10,24.11,15.7,12.83,5.55,29.1,5.94S824,248.68,833.36,248.11Z" transform="translate(-176.69 -111.65)"/><path class="cls-1" d="M875.85,213c-17.51,0-13.78,8.32-11.48,13.78s7.75,15.22,17.51,30.14,17.8,23.55,27.56,25.84c9.23,2.17,130.37-2.84,143.54-3.39l1.15-.05s-138.66-5.46-145-9.19-27.27-42.2-22.68-45.65,186.32-5.9,188.91-3.32.51,39.16.51,39.16,7.24-22.63,7.82-28.37-.29-19.24-4.6-18.95S893.36,213,875.85,213Z" transform="translate(-176.69 -111.65)"/><path class="cls-1" d="M252.67,303c-15.35,0-25.95,12.57-29.6,30.5,5.29-13.56,11.67-22.33,26.27-22.33,11.53,0,27.06,5.94,33.41,27.75C279.83,310.77,265.54,303,252.67,303Z" transform="translate(-176.69 -111.65)"/><path class="cls-1" d="M1104.07,318.27c-.3-1.87-.67-1.86-.81,0l-3.94,25.14a3.79,3.79,0,0,1-3.7,3.44,5.83,5.83,0,0,1-4.87-3.14l-13.1-31.29c-2.2-4.46-3.35-5.32-11.25-5.8l-169,2.58c-22.58-.49-31.48,1.9-45.93,11.73l-31.7,22.5a15.81,15.81,0,0,1-6.39,2l-56.27,2.22a2.06,2.06,0,0,1-2.17-3.05s24-35.08,28.08-37.42c3.86-2.19,51.08-9,51.08-9,1.87-.3,1.85-.55-.05-.55h-59.1c-12-.78-16.83,2-21.39,11.53l-24.45,51.58c-.81,1.72.08,3.08,2,3,0,0,99.91-2.07,101.06-2.83s30.26-21.29,30.26-21.29c10.31-6.71,21.49-15.88,34.41-15.84l172.61-4.49c1.9,0,7.06,8.31,7.95,10L1088.26,352a7.43,7.43,0,0,0,5,3.47l7.59-.5c2.07-.25,3.17-1.1,2.87-3Z" transform="translate(-176.69 -111.65)"/><path class="cls-1" d="M671.56,296h0c-14.13-25.42-35.47-41-57.82-38.91-13.81,1.29-26,9.17-35.42,21.5a55.62,55.62,0,0,1,24-8.12c39.18-3.67,75.11,35.78,81.71,88.82h0S689.85,332.3,671.56,296Z" transform="translate(-176.69 -111.65)"/><text class="cls-2" transform="translate(0 431.49)">MOTORINO</text></svg>